# xmcd CD database file
#
# Track frame offsets:
#	150
#	10086
#	23436
#	34731
#	50213
#	60316
#	75088
#	91595
#	100561
#	110823
#	122131
#	131116
#	146389
#	156760
#
# Disc length: 2235 seconds
#
# Revision: 0
# Processed by: cddbd v1.5.2PL0 Copyright (c) Steve Scherf et al.
# Submitted via: CDex 1.87
#
DISCID=a108b90e
DTITLE=Jonnie Selfish and The Worried Men - Kauntri Muzik
DYEAR=2012
DGENRE=Country
TTITLE0=Uprising
TTITLE1=Western Civilization
TTITLE2=Nothing to Sing About
TTITLE3=The Funeral
TTITLE4=Buffalo Skinners
TTITLE5=Tender Heart
TTITLE6=Kauntri Muzik
TTITLE7=Radioactivity
TTITLE8=This Machine Kills Fascists
TTITLE9=Duna River Blues
TTITLE10=Letter to the Censors
TTITLE11=Zaporozhe
TTITLE12=I don't want you
TTITLE13=Headache Twist
EXTD=YEAR: 2012
EXTT0=
EXTT1=
EXTT2=
EXTT3=
EXTT4=
EXTT5=
EXTT6=
EXTT7=
EXTT8=
EXTT9=
EXTT10=
EXTT11=
EXTT12=
EXTT13=
PLAYORDER=
